<mxfile host="Electron" agent="Mozilla/5.0 (Macintosh; Intel Mac OS X 10_15_7) AppleWebKit/537.36 (KHTML, like Gecko) draw.io/24.7.17 Chrome/128.0.6613.36 Electron/32.0.1 Safari/537.36" version="24.7.17">
  <diagram name="Page-1" id="0_-_a3WUVpLAPQEfZTsn">
    <mxGraphModel dx="909" dy="642" grid="1" gridSize="10" guides="1" tooltips="1" connect="1" arrows="1" fold="1" page="1" pageScale="1" pageWidth="827" pageHeight="1169" math="1" shadow="0">
      <root>
        <mxCell id="0" />
        <mxCell id="1" parent="0" />
        <mxCell id="_CMiZezSvA6A_bbTY-Fj-1" value="" style="rounded=1;whiteSpace=wrap;html=1;fillColor=#F0F0F0;strokeColor=#A6A6A6;strokeWidth=4;arcSize=5;" vertex="1" parent="1">
          <mxGeometry x="120" y="160" width="320" height="410" as="geometry" />
        </mxCell>
        <mxCell id="_CMiZezSvA6A_bbTY-Fj-2" value="&lt;font style=&quot;font-size: 20px;&quot;&gt;Self-Attention&lt;/font&gt;" style="rounded=1;whiteSpace=wrap;html=1;strokeWidth=3;fillColor=#b1ddf0;strokeColor=#10739e;" vertex="1" parent="1">
          <mxGeometry x="150" y="470" width="240" height="60" as="geometry" />
        </mxCell>
        <mxCell id="_CMiZezSvA6A_bbTY-Fj-3" value="&lt;font style=&quot;font-size: 20px;&quot;&gt;$$(a)$$&lt;/font&gt;" style="text;html=1;align=center;verticalAlign=middle;whiteSpace=wrap;rounded=0;" vertex="1" parent="1">
          <mxGeometry x="245" y="610" width="70" height="30" as="geometry" />
        </mxCell>
        <mxCell id="_CMiZezSvA6A_bbTY-Fj-4" value="&lt;font style=&quot;font-size: 20px;&quot;&gt;Add &amp;amp; LayerNorm&lt;/font&gt;" style="rounded=1;whiteSpace=wrap;html=1;strokeWidth=3;fillColor=#fad9d5;strokeColor=#ae4132;" vertex="1" parent="1">
          <mxGeometry x="150" y="380" width="240" height="60" as="geometry" />
        </mxCell>
        <mxCell id="_CMiZezSvA6A_bbTY-Fj-5" value="&lt;font style=&quot;font-size: 20px;&quot;&gt;Feed-forward Network&lt;/font&gt;" style="rounded=1;whiteSpace=wrap;html=1;strokeWidth=3;fillColor=#b0e3e6;strokeColor=#0e8088;" vertex="1" parent="1">
          <mxGeometry x="150" y="280" width="240" height="60" as="geometry" />
        </mxCell>
        <mxCell id="_CMiZezSvA6A_bbTY-Fj-6" value="&lt;span style=&quot;font-size: 20px;&quot;&gt;Add &amp;amp; LayerNorm&lt;/span&gt;" style="rounded=1;whiteSpace=wrap;html=1;strokeWidth=3;fillColor=#fad9d5;strokeColor=#ae4132;" vertex="1" parent="1">
          <mxGeometry x="150" y="190" width="240" height="60" as="geometry" />
        </mxCell>
        <mxCell id="_CMiZezSvA6A_bbTY-Fj-8" value="" style="endArrow=classic;html=1;rounded=0;strokeWidth=3;" edge="1" parent="1">
          <mxGeometry width="50" height="50" relative="1" as="geometry">
            <mxPoint x="270" y="470" as="sourcePoint" />
            <mxPoint x="269.5" y="440" as="targetPoint" />
          </mxGeometry>
        </mxCell>
        <mxCell id="_CMiZezSvA6A_bbTY-Fj-10" value="" style="endArrow=classic;html=1;rounded=0;strokeWidth=3;entryX=0.5;entryY=1;entryDx=0;entryDy=0;" edge="1" parent="1" target="_CMiZezSvA6A_bbTY-Fj-5">
          <mxGeometry width="50" height="50" relative="1" as="geometry">
            <mxPoint x="270" y="380" as="sourcePoint" />
            <mxPoint x="269.5" y="350" as="targetPoint" />
          </mxGeometry>
        </mxCell>
        <mxCell id="_CMiZezSvA6A_bbTY-Fj-11" value="" style="endArrow=classic;html=1;rounded=0;strokeWidth=3;" edge="1" parent="1">
          <mxGeometry width="50" height="50" relative="1" as="geometry">
            <mxPoint x="270" y="280" as="sourcePoint" />
            <mxPoint x="269.5" y="250" as="targetPoint" />
          </mxGeometry>
        </mxCell>
        <mxCell id="_CMiZezSvA6A_bbTY-Fj-12" value="" style="endArrow=classic;html=1;rounded=0;strokeWidth=3;" edge="1" parent="1">
          <mxGeometry width="50" height="50" relative="1" as="geometry">
            <mxPoint x="270" y="600" as="sourcePoint" />
            <mxPoint x="269.5" y="530" as="targetPoint" />
          </mxGeometry>
        </mxCell>
        <mxCell id="_CMiZezSvA6A_bbTY-Fj-13" value="" style="endArrow=classic;html=1;rounded=0;strokeWidth=3;" edge="1" parent="1">
          <mxGeometry width="50" height="50" relative="1" as="geometry">
            <mxPoint x="270" y="552" as="sourcePoint" />
            <mxPoint x="390" y="410" as="targetPoint" />
            <Array as="points">
              <mxPoint x="410" y="552" />
              <mxPoint x="410" y="410" />
            </Array>
          </mxGeometry>
        </mxCell>
        <mxCell id="_CMiZezSvA6A_bbTY-Fj-15" value="" style="endArrow=classic;html=1;rounded=0;strokeWidth=3;" edge="1" parent="1">
          <mxGeometry width="50" height="50" relative="1" as="geometry">
            <mxPoint x="270" y="362" as="sourcePoint" />
            <mxPoint x="390" y="220" as="targetPoint" />
            <Array as="points">
              <mxPoint x="410" y="362" />
              <mxPoint x="410" y="220" />
            </Array>
          </mxGeometry>
        </mxCell>
        <mxCell id="_CMiZezSvA6A_bbTY-Fj-16" value="" style="endArrow=classic;html=1;rounded=0;strokeWidth=3;" edge="1" parent="1">
          <mxGeometry width="50" height="50" relative="1" as="geometry">
            <mxPoint x="270" y="190" as="sourcePoint" />
            <mxPoint x="270" y="130" as="targetPoint" />
          </mxGeometry>
        </mxCell>
        <mxCell id="_CMiZezSvA6A_bbTY-Fj-19" value="&lt;font style=&quot;font-size: 20px;&quot;&gt;$$(b)$$&lt;/font&gt;" style="text;html=1;align=center;verticalAlign=middle;whiteSpace=wrap;rounded=0;" vertex="1" parent="1">
          <mxGeometry x="645" y="610" width="70" height="30" as="geometry" />
        </mxCell>
        <mxCell id="_CMiZezSvA6A_bbTY-Fj-20" value="&lt;font style=&quot;font-size: 20px;&quot;&gt;Embedding&lt;/font&gt;" style="rounded=1;whiteSpace=wrap;html=1;strokeWidth=3;fillColor=#ffe6cc;strokeColor=#d79b00;" vertex="1" parent="1">
          <mxGeometry x="560" y="492" width="240" height="60" as="geometry" />
        </mxCell>
        <mxCell id="_CMiZezSvA6A_bbTY-Fj-26" value="" style="endArrow=classic;html=1;rounded=0;strokeWidth=3;" edge="1" parent="1">
          <mxGeometry width="50" height="50" relative="1" as="geometry">
            <mxPoint x="680" y="572" as="sourcePoint" />
            <mxPoint x="679.5" y="552" as="targetPoint" />
          </mxGeometry>
        </mxCell>
        <mxCell id="_CMiZezSvA6A_bbTY-Fj-30" value="&lt;font style=&quot;font-size: 20px;&quot;&gt;Transformer Layer 1&lt;/font&gt;" style="rounded=1;whiteSpace=wrap;html=1;strokeWidth=3;fillColor=#f0f0f0;strokeColor=#a6a6a6;" vertex="1" parent="1">
          <mxGeometry x="560" y="331" width="240" height="60" as="geometry" />
        </mxCell>
        <mxCell id="_CMiZezSvA6A_bbTY-Fj-31" value="&lt;font style=&quot;font-size: 20px;&quot;&gt;Positional Encoding&lt;/font&gt;&lt;div&gt;&lt;font style=&quot;font-size: 20px;&quot;&gt;(optional)&lt;/font&gt;&lt;/div&gt;" style="rounded=1;whiteSpace=wrap;html=1;strokeWidth=3;fillColor=#e1d5e7;strokeColor=#9673a6;" vertex="1" parent="1">
          <mxGeometry x="560" y="412" width="240" height="60" as="geometry" />
        </mxCell>
        <mxCell id="_CMiZezSvA6A_bbTY-Fj-32" value="" style="endArrow=classic;html=1;rounded=0;strokeWidth=3;exitX=0.5;exitY=0;exitDx=0;exitDy=0;entryX=0.5;entryY=1;entryDx=0;entryDy=0;" edge="1" parent="1" source="_CMiZezSvA6A_bbTY-Fj-20" target="_CMiZezSvA6A_bbTY-Fj-31">
          <mxGeometry width="50" height="50" relative="1" as="geometry">
            <mxPoint x="689.5" y="602" as="sourcePoint" />
            <mxPoint x="689.5" y="562" as="targetPoint" />
          </mxGeometry>
        </mxCell>
        <mxCell id="_CMiZezSvA6A_bbTY-Fj-34" value="" style="endArrow=classic;html=1;rounded=0;strokeWidth=3;exitX=0.5;exitY=0;exitDx=0;exitDy=0;entryX=0.5;entryY=1;entryDx=0;entryDy=0;" edge="1" parent="1" target="_CMiZezSvA6A_bbTY-Fj-30">
          <mxGeometry width="50" height="50" relative="1" as="geometry">
            <mxPoint x="680" y="411" as="sourcePoint" />
            <mxPoint x="680" y="381" as="targetPoint" />
          </mxGeometry>
        </mxCell>
        <mxCell id="_CMiZezSvA6A_bbTY-Fj-44" value="" style="edgeStyle=orthogonalEdgeStyle;rounded=0;orthogonalLoop=1;jettySize=auto;html=1;" edge="1" parent="1" source="_CMiZezSvA6A_bbTY-Fj-36" target="_CMiZezSvA6A_bbTY-Fj-41">
          <mxGeometry relative="1" as="geometry" />
        </mxCell>
        <mxCell id="_CMiZezSvA6A_bbTY-Fj-36" value="&lt;font style=&quot;font-size: 20px;&quot;&gt;Linear&lt;/font&gt;" style="rounded=1;whiteSpace=wrap;html=1;strokeWidth=3;fillColor=#dae8fc;strokeColor=#6c8ebf;" vertex="1" parent="1">
          <mxGeometry x="560" y="172" width="240" height="60" as="geometry" />
        </mxCell>
        <mxCell id="_CMiZezSvA6A_bbTY-Fj-37" value="" style="endArrow=classic;html=1;rounded=0;strokeWidth=3;entryX=0.5;entryY=1;entryDx=0;entryDy=0;exitX=0.5;exitY=0;exitDx=0;exitDy=0;" edge="1" parent="1" target="_CMiZezSvA6A_bbTY-Fj-36" source="_CMiZezSvA6A_bbTY-Fj-42">
          <mxGeometry width="50" height="50" relative="1" as="geometry">
            <mxPoint x="680" y="272" as="sourcePoint" />
            <mxPoint x="680" y="252" as="targetPoint" />
          </mxGeometry>
        </mxCell>
        <mxCell id="_CMiZezSvA6A_bbTY-Fj-38" value="" style="endArrow=classic;html=1;rounded=0;strokeWidth=3;" edge="1" parent="1">
          <mxGeometry width="50" height="50" relative="1" as="geometry">
            <mxPoint x="680" y="172" as="sourcePoint" />
            <mxPoint x="680" y="152" as="targetPoint" />
          </mxGeometry>
        </mxCell>
        <mxCell id="_CMiZezSvA6A_bbTY-Fj-39" value="&lt;span style=&quot;font-size: 20px;&quot;&gt;&lt;b&gt;. . .&lt;/b&gt;&lt;/span&gt;" style="text;html=1;align=center;verticalAlign=middle;whiteSpace=wrap;rounded=0;" vertex="1" parent="1">
          <mxGeometry x="650" y="301" width="60" height="30" as="geometry" />
        </mxCell>
        <mxCell id="_CMiZezSvA6A_bbTY-Fj-40" value="&lt;span style=&quot;font-size: 20px;&quot;&gt;Tokens&lt;/span&gt;" style="text;html=1;align=center;verticalAlign=middle;whiteSpace=wrap;rounded=0;" vertex="1" parent="1">
          <mxGeometry x="610" y="573" width="140" height="30" as="geometry" />
        </mxCell>
        <mxCell id="_CMiZezSvA6A_bbTY-Fj-41" value="&lt;span style=&quot;font-size: 20px;&quot;&gt;Logits&lt;/span&gt;" style="text;html=1;align=center;verticalAlign=middle;whiteSpace=wrap;rounded=0;" vertex="1" parent="1">
          <mxGeometry x="610" y="120" width="140" height="30" as="geometry" />
        </mxCell>
        <mxCell id="_CMiZezSvA6A_bbTY-Fj-42" value="&lt;font style=&quot;font-size: 20px;&quot;&gt;Transformer Layer N&lt;/font&gt;" style="rounded=1;whiteSpace=wrap;html=1;strokeWidth=3;fillColor=#f0f0f0;strokeColor=#a6a6a6;" vertex="1" parent="1">
          <mxGeometry x="560" y="252" width="240" height="60" as="geometry" />
        </mxCell>
      </root>
    </mxGraphModel>
  </diagram>
</mxfile>
